<svg width="46" height="60" viewBox="0 0 46 60" fill="none" xmlns="http://www.w3.org/2000/svg">
<path d="M45.5419 6.92591V31.7512C45.5419 32.5248 44.9016 33.1536 44.1146 33.1536C43.3277 33.1536 42.6836 32.5248 42.6836 31.7512V6.92591C42.6836 6.15226 43.3239 5.52344 44.1146 5.52344C44.9054 5.52344 45.5419 6.15226 45.5419 6.92591Z" fill="white"/>
<path d="M39.4442 14.0378V31.702C39.4442 32.5043 38.804 33.1598 38.0132 33.1598C37.2224 33.1598 36.5859 32.5043 36.5859 31.702V14.0378C36.5859 13.2336 37.2262 12.5781 38.0132 12.5781C38.8002 12.5781 39.4442 13.2336 39.4442 14.0378Z" fill="white"/>
<path d="M33.3466 14.1673V24.5201C33.3466 25.3966 32.7063 26.1093 31.9155 26.1093C31.1247 26.1093 30.4883 25.3966 30.4883 24.5201V14.1673C30.4883 13.2908 31.1285 12.5781 31.9155 12.5781C32.7025 12.5781 33.3466 13.2908 33.3466 14.1673Z" fill="white"/>
<path d="M27.2489 27.4269V40.0339C27.2489 40.7865 26.6087 41.3982 25.8198 41.3982C25.0309 41.3982 24.3906 40.7865 24.3906 40.0339V27.4269C24.3906 26.6742 25.0309 26.0625 25.8198 26.0625C26.6087 26.0625 27.2489 26.6742 27.2489 27.4269Z" fill="white"/>
<path d="M21.1513 1.4806V31.6776C21.1513 32.495 20.5091 33.1581 19.7221 33.1581C18.9351 33.1581 18.293 32.495 18.293 31.6776V1.4806C18.293 0.663125 18.9351 0 19.7221 0C20.5091 0 21.1513 0.663125 21.1513 1.4806Z" fill="white"/>
<path d="M15.0523 6.93734V31.7416C15.0523 32.521 14.4177 33.1555 13.6365 33.1555C12.8552 33.1555 12.2188 32.521 12.2188 31.7416V6.93734C12.2188 6.15798 12.8533 5.52344 13.6365 5.52344C14.4196 5.52344 15.0523 6.15798 15.0523 6.93734Z" fill="white"/>
<path d="M8.95224 34.755V45.0849C8.95224 45.9671 8.31389 46.6855 7.5269 46.6855C6.73992 46.6855 6.10156 45.9671 6.10156 45.0849V34.755C6.10156 33.8727 6.74182 33.1562 7.5269 33.1562C8.31198 33.1562 8.95224 33.8746 8.95224 34.755Z" fill="white"/>
<path d="M2.83162 27.5785V45.2219C2.83162 46.0317 2.19708 46.691 1.41581 46.691C0.634542 46.691 0 46.0317 0 45.2219V27.5785C0 26.7687 0.634542 26.1094 1.41581 26.1094C2.19708 26.1094 2.83162 26.7687 2.83162 27.5785Z" fill="white"/>
<path d="M3.92501 56.9205C2.67308 56.9205 1.7165 56.6099 1.05528 55.9906C0.394062 55.3713 0.0625 54.47 0.0625 53.2886C0.0625 53.0885 0.0777443 52.8598 0.106327 52.6064C0.13491 52.3529 0.18636 52.0671 0.256864 51.747C0.327369 51.4269 0.409307 51.0858 0.504583 50.7199L1.28395 50.9143C1.11816 51.4688 1.03623 51.9414 1.03623 52.332C1.03623 53.1476 1.28776 53.7669 1.78891 54.1918C2.29007 54.6167 3.06752 54.8301 4.11938 54.8301C4.74439 54.8301 5.38846 54.792 6.04968 54.7158C6.7109 54.6396 7.34353 54.5405 7.94568 54.4243C8.25247 54.3538 8.55355 54.2756 8.8489 54.1937C9.14426 54.1118 9.40913 54.0222 9.64542 53.9288C9.38626 53.8221 9.07566 53.6773 8.71552 53.4944C8.35537 53.3114 8.01047 53.1171 7.67891 52.9094C7.34735 52.7017 7.07676 52.5225 6.86334 52.3682C6.55655 52.1319 6.4022 51.9604 6.4022 51.8537C6.4022 51.7356 6.44412 51.5698 6.52606 51.3583C6.608 51.1448 6.70518 50.9276 6.81761 50.7028C6.93003 50.4779 7.03674 50.2893 7.13583 50.1368C7.23683 49.9844 7.30352 49.9062 7.33972 49.9062C7.87137 50.0015 8.45637 50.0739 9.09281 50.1273C9.73117 50.1806 10.4267 50.2073 11.1832 50.2073C11.3128 50.2073 11.3775 50.2664 11.3775 50.3845V52.1205C11.3775 52.2386 11.3128 52.2977 11.1832 52.2977C10.9355 52.2977 10.642 52.2863 10.3066 52.2615C9.96936 52.2386 9.6397 52.2024 9.31385 52.1548C8.98801 52.1071 8.7079 52.0538 8.47161 51.9947C8.95561 52.2196 9.32529 52.3968 9.57872 52.5264C9.83216 52.6559 10.0132 52.7531 10.1199 52.8179C10.2266 52.8827 10.2971 52.9456 10.3333 53.0046C10.4153 53.0866 10.4724 53.2143 10.501 53.3858C10.5296 53.5573 10.5448 53.7249 10.5448 53.8907C10.5448 54.1861 10.3905 54.491 10.0837 54.8035C9.7769 55.116 9.35387 55.4151 8.81651 55.6972C8.27915 55.9811 7.65604 56.2288 6.94718 56.4422C5.8839 56.7604 4.87397 56.9205 3.91739 56.9205H3.92501ZM3.18185 60.0037C2.8865 59.7674 2.64068 59.554 2.44632 59.3653C2.25196 59.1767 2.08808 59.0109 1.9585 58.8699C2.15858 58.6698 2.36057 58.4659 2.56065 58.2582C2.76073 58.0524 2.96272 57.8485 3.1628 57.6465C3.2333 57.7285 3.36097 57.8657 3.54391 58.0543C3.72684 58.243 3.96693 58.4735 4.26229 58.746C4.10794 58.9709 3.94407 59.1862 3.76685 59.392C3.58964 59.5978 3.39527 59.8017 3.18185 60.0037ZM5.55615 59.7388C5.04737 59.3253 4.64149 58.9537 4.3347 58.6221C4.712 58.2906 5.10835 57.879 5.52185 57.3816C5.55805 57.4179 5.66667 57.5265 5.8496 57.7094C6.03253 57.8923 6.28978 58.1553 6.61943 58.4983C6.50129 58.6755 6.35456 58.868 6.17735 59.0738C6.00014 59.2796 5.79434 59.5025 5.55805 59.7388H5.55615Z" fill="white"/>
<path d="M11.0824 52.2916C10.9871 52.2916 10.9414 52.2439 10.9414 52.1506V50.3441C10.9414 50.2489 10.989 50.2031 11.0824 50.2031H14.8916C14.9983 50.2031 15.0516 50.2508 15.0516 50.3441V52.1506C15.0516 52.2459 14.9983 52.2916 14.8916 52.2916H11.0824Z" fill="white"/>
<path d="M14.8012 52.291C14.7059 52.291 14.6602 52.2434 14.6602 52.15V50.3436C14.6602 50.2483 14.7078 50.2026 14.8012 50.2026C15.3214 50.2026 15.9407 50.0673 16.661 49.7948C16.6133 49.4518 16.5695 49.1069 16.5276 48.7582C16.4857 48.4095 16.4361 48.0646 16.377 47.7216C16.3294 47.3786 16.2113 46.6964 16.0226 45.675C15.834 44.6537 15.5862 43.2874 15.2775 41.5743C15.5843 41.3609 15.9178 41.1608 16.278 40.9722C16.6381 40.7835 17.0078 40.5949 17.3851 40.4062C17.4079 41.3743 17.4327 42.2927 17.4556 43.1616C17.4784 44.0306 17.5032 44.8423 17.5261 45.5969C17.5489 46.3534 17.568 47.0527 17.5794 47.6968C17.5909 48.3409 17.5966 48.9392 17.5966 49.4956C17.5966 49.8977 17.5413 50.2864 17.4289 50.6656C17.3165 51.0429 17.1431 51.4031 16.9068 51.7461C16.7886 51.9118 16.5371 52.0452 16.1541 52.1443C15.7711 52.2453 15.3176 52.2949 14.7993 52.2949L14.8012 52.291Z" fill="white"/>
<path d="M19.9557 39.9804L19.9023 39.2354L20.5407 38.8638C20.1634 38.7228 19.9748 38.4922 19.9748 38.1721C19.9748 37.9587 20.0395 37.7472 20.1691 37.5337C20.2987 37.3203 20.4607 37.1412 20.6569 36.9945C20.8513 36.8478 21.038 36.7734 21.2153 36.7734C21.6516 36.7734 21.8708 37.0383 21.8708 37.57C21.8708 37.7472 21.8479 37.8825 21.8003 37.9777L21.4458 37.9244V37.871C21.4458 37.812 21.4287 37.77 21.3925 37.7472C21.3563 37.7243 21.3048 37.711 21.2324 37.711C21.1143 37.711 21.0018 37.7472 20.8951 37.8177C20.7884 37.8882 20.695 38.0006 20.6112 38.1549C20.8246 38.3684 21.1181 38.4732 21.4973 38.4732C21.5925 38.4732 21.6974 38.4675 21.8155 38.456C21.9336 38.4446 22.0575 38.4274 22.1871 38.4027L22.1166 39.182C21.6916 39.2773 21.3334 39.3745 21.0457 39.4736C20.756 39.5746 20.394 39.7423 19.9557 39.9785V39.9804ZM20.7884 52.2921C20.7293 51.0764 20.6703 50.0074 20.6112 49.0851C20.5521 48.1647 20.4931 47.3167 20.434 46.5431C20.3749 45.7695 20.3101 45.0168 20.2396 44.285C20.1691 43.5533 20.091 42.7606 20.0091 41.9108C19.9728 41.6154 20.0414 41.3562 20.2129 41.1314C20.3844 40.9065 20.6207 40.7293 20.9218 40.5997C21.2229 40.4702 21.5506 40.4054 21.9051 40.4054C22.0003 40.7712 22.1089 41.1371 22.2328 41.503C22.3567 41.8688 22.4901 42.229 22.6311 42.5834L22.0118 43.0445C22.0346 43.6943 22.048 44.4699 22.048 45.375C22.048 46.2801 22.0384 47.2977 22.0213 48.4315C22.0041 49.5653 21.9718 50.8058 21.9241 52.1511L20.7903 52.2921H20.7884Z" fill="white"/>
<path d="M25.4828 55.9044C25.3532 55.9044 25.1646 55.8453 24.9169 55.7272C24.6691 55.609 24.3852 55.4413 24.067 55.2222C23.7488 55.0031 23.4172 54.7534 23.0742 54.4695L23.3581 53.7245C23.6764 53.8064 23.987 53.8693 24.288 53.9112C24.5891 53.9531 24.8749 53.9741 25.1474 53.9741C26.0221 53.9741 26.7595 53.755 27.3617 53.3186C27.9638 52.8822 28.4002 52.2496 28.6727 51.4226C28.5907 51.2454 28.4974 51.0662 28.3983 50.8833C28.2973 50.7004 28.1887 50.5194 28.0705 50.3421C27.8114 49.9286 27.5922 49.5723 27.415 49.2712C27.2378 48.9702 27.1025 48.7243 27.0072 48.5357C26.9253 48.3356 26.8586 48.1527 26.8129 47.9869C26.7652 47.8211 26.7424 47.6687 26.7424 47.5258C26.7424 47.1828 26.8777 46.8436 27.1502 46.5063C27.4207 46.169 27.7752 45.8889 28.2134 45.6641C28.2725 45.8889 28.3335 46.1138 28.4002 46.3367C28.465 46.5616 28.5393 46.7921 28.6212 47.0284C28.8804 47.7716 29.0843 48.3814 29.2329 48.8539C29.3796 49.3265 29.4711 49.6638 29.5073 49.8639C29.9094 50.0887 30.3514 50.2011 30.8355 50.2011C30.9307 50.2011 30.9765 50.2488 30.9765 50.3421V52.1486C30.9765 52.2439 30.9288 52.2896 30.8355 52.2896C30.3991 52.2896 29.9608 52.1772 29.5244 51.9523C29.3949 52.7317 29.1414 53.4196 28.7622 54.016C28.3849 54.6124 27.9143 55.0755 27.354 55.407C26.7938 55.7367 26.1707 55.9025 25.4847 55.9025L25.4828 55.9044Z" fill="white"/>
<path d="M30.6723 52.2916C30.577 52.2916 30.5312 52.2439 30.5312 52.1506V50.3441C30.5312 50.2489 30.5789 50.2031 30.6723 50.2031H34.4814C34.5881 50.2031 34.6415 50.2508 34.6415 50.3441V52.1506C34.6415 52.2459 34.5881 52.2916 34.4814 52.2916H30.6723Z" fill="white"/>
<path d="M34.4101 52.2939C34.3034 52.2939 34.25 52.2405 34.25 52.1338V50.3445C34.25 50.2493 34.3034 50.2035 34.4101 50.2035C35.7096 50.2035 36.8072 50.1616 37.7047 50.0797C38.6022 49.9977 39.3987 49.7957 40.0962 49.4775C40.0733 49.3956 40.0428 49.3003 40.0085 49.1936C39.9723 49.0869 39.9266 48.963 39.8675 48.822C39.5836 49.0697 39.2711 49.2584 38.9281 49.3899C38.5851 49.5194 38.2078 49.5842 37.7943 49.5842C37.1216 49.5842 36.6186 49.407 36.2889 49.0526C35.9574 48.6982 35.7935 48.2561 35.7935 47.7244C35.7935 47.1337 35.9021 46.5906 36.1212 46.0952C36.3404 45.5998 36.6319 45.2091 36.9978 44.9252C37.1864 44.7728 37.3884 44.6508 37.5999 44.5612C37.8114 44.4717 38.0306 44.4279 38.2554 44.4279C38.7394 44.4279 39.2082 44.6965 39.6636 45.2339C40.1171 45.7713 40.4697 46.4534 40.7174 47.2804C40.8355 47.6349 40.9213 48.0045 40.9746 48.3876C41.028 48.7706 41.0547 49.165 41.0547 49.5652C41.0547 49.9653 40.8546 50.5503 40.4525 51.3545C39.8732 51.5793 39.3092 51.7584 38.7604 51.8937C38.2116 52.029 37.5961 52.13 36.9177 52.1948C36.2394 52.2596 35.4028 52.292 34.4101 52.292V52.2939ZM37.0492 43.5951C36.7901 43.3951 36.5595 43.1988 36.3575 43.0101C36.1574 42.8215 35.9802 42.6443 35.8259 42.4785C36.026 42.2784 36.2279 42.0745 36.428 41.8668C36.6281 41.661 36.8301 41.4571 37.0302 41.2552C37.1369 41.3733 37.2817 41.5276 37.4646 41.7163C37.6476 41.9049 37.8686 42.1184 38.1297 42.3546C37.9753 42.5681 37.8114 42.7777 37.6342 42.9835C37.457 43.1893 37.2626 43.3932 37.0492 43.5951ZM38.042 48.2904C38.5031 48.2904 38.9986 48.2084 39.5302 48.0427C39.3054 47.5224 39.0634 47.1451 38.8042 46.9089C38.5451 46.6726 38.2307 46.5544 37.8648 46.5544C37.4989 46.5544 37.2131 46.6459 37.0054 46.8288C36.7996 47.0118 36.6948 47.2157 36.6948 47.4405C36.6948 47.7244 36.8015 47.9359 37.013 48.0789C37.2264 48.2199 37.5675 48.2923 38.0401 48.2923L38.042 48.2904ZM39.4235 43.3303C39.1758 43.1302 38.9509 42.9415 38.7509 42.7643C38.5508 42.5871 38.3679 42.4099 38.2021 42.2327C38.4269 42.0326 38.6365 41.8287 38.8309 41.621C39.0253 41.4152 39.212 41.2056 39.3892 40.9922C39.4959 41.1103 39.6427 41.2571 39.8313 41.4343C40.0199 41.6115 40.2448 41.8306 40.504 42.0898C40.1857 42.5261 39.8237 42.9396 39.4235 43.3303Z" fill="white"/>
<path d="M44.1013 52.293C44.0422 51.0772 43.9831 50.0082 43.924 49.0859C43.865 48.1656 43.8059 47.3176 43.7468 46.544C43.6878 45.7703 43.623 45.0176 43.5525 44.2859C43.482 43.5542 43.4038 42.7615 43.3219 41.9116C43.2857 41.6163 43.3543 41.3571 43.5258 41.1323C43.6973 40.9074 43.9336 40.7302 44.2346 40.6006C44.5357 40.471 44.8635 40.4062 45.2179 40.4062C45.3132 40.7721 45.4218 41.138 45.5456 41.5038C45.6695 41.8697 45.8029 42.2298 45.9439 42.5843L45.3246 43.0454C45.3475 43.6952 45.3608 44.4707 45.3608 45.3759C45.3608 46.281 45.3513 47.2986 45.3341 48.4323C45.317 49.5661 45.2846 50.8066 45.2369 52.1519L44.1032 52.293H44.1013Z" fill="white"/>
</svg>
